<svg width="18" height="19" viewBox="0 0 18 19" fill="none" xmlns="http://www.w3.org/2000/svg">
<path d="M5.14414 15.2656H12.8539L13.2793 6.26562H4.71875L5.14414 15.2656Z" fill="#2F80ED"/>
<path d="M15.1875 5H12.9375V3.59375C12.9375 2.97324 12.433 2.46875 11.8125 2.46875H6.1875C5.56699 2.46875 5.0625 2.97324 5.0625 3.59375V5H2.8125C2.50137 5 2.25 5.25137 2.25 5.5625V6.125C2.25 6.20234 2.31328 6.26562 2.39062 6.26562H3.45234L3.88652 15.459C3.91465 16.0584 4.41035 16.5312 5.00977 16.5312H12.9902C13.5914 16.5312 14.0854 16.0602 14.1135 15.459L14.5477 6.26562H15.6094C15.6867 6.26562 15.75 6.20234 15.75 6.125V5.5625C15.75 5.25137 15.4986 5 15.1875 5ZM6.32812 3.73438H11.6719V5H6.32812V3.73438ZM12.8549 15.2656H5.14512L4.71973 6.26562H13.2803L12.8549 15.2656Z" fill="#2F80ED"/>
</svg>
