<svg width="25" height="24" viewBox="0 0 25 24" fill="none" xmlns="http://www.w3.org/2000/svg">
<path d="M17.1102 5.40807L19.2322 7.52507L17.1102 5.40807ZM18.4748 3.54307L12.7368 9.27007C12.4404 9.56557 12.2382 9.94205 12.1557 10.3521L11.6257 13.0001L14.2788 12.4701C14.6896 12.3881 15.0663 12.1871 15.3628 11.8911L21.1008 6.16407C21.2732 5.99197 21.41 5.78766 21.5033 5.56281C21.5966 5.33795 21.6446 5.09695 21.6446 4.85357C21.6446 4.61019 21.5966 4.36919 21.5033 4.14433C21.41 3.91948 21.2732 3.71517 21.1008 3.54307C20.9284 3.37097 20.7237 3.23446 20.4984 3.14132C20.2731 3.04818 20.0316 3.00024 19.7878 3.00024C19.5439 3.00024 19.3025 3.04818 19.0772 3.14132C18.8519 3.23446 18.6472 3.37097 18.4748 3.54307V3.54307Z" stroke="#3D89CF" stroke-width="2" stroke-linecap="round" stroke-linejoin="round"/>
<path d="M19.6409 15V18C19.6409 18.5304 19.4298 19.0391 19.054 19.4142C18.6782 19.7893 18.1686 20 17.6371 20H6.61612C6.08468 20 5.575 19.7893 5.19921 19.4142C4.82342 19.0391 4.6123 18.5304 4.6123 18V7C4.6123 6.46957 4.82342 5.96086 5.19921 5.58579C5.575 5.21071 6.08468 5 6.61612 5H9.62185" stroke="#3D89CF" stroke-width="2" stroke-linecap="round" stroke-linejoin="round"/>
</svg>
