<svg width="25" height="24" viewBox="0 0 25 24" fill="none" xmlns="http://www.w3.org/2000/svg">
<path d="M9.96959 12C9.96959 12.6962 10.2487 13.3639 10.7455 13.8562C11.2424 14.3484 11.9162 14.625 12.6189 14.625C13.3215 14.625 13.9953 14.3484 14.4922 13.8562C14.989 13.3639 15.2681 12.6962 15.2681 12C15.2681 11.3038 14.989 10.6361 14.4922 10.1438C13.9953 9.65156 13.3215 9.375 12.6189 9.375C11.9162 9.375 11.2424 9.65156 10.7455 10.1438C10.2487 10.6361 9.96959 11.3038 9.96959 12ZM22.8895 11.3953C20.6471 6.71484 17.2574 4.35938 12.7135 4.35938C8.16715 4.35938 4.77988 6.71484 2.53747 11.3977C2.44753 11.5864 2.40088 11.7925 2.40088 12.0012C2.40088 12.2099 2.44753 12.416 2.53747 12.6047C4.77988 17.2852 8.16951 19.6406 12.7135 19.6406C17.2598 19.6406 20.6471 17.2852 22.8895 12.6023C23.0716 12.2227 23.0716 11.782 22.8895 11.3953ZM12.6189 16.125C10.3197 16.125 8.45573 14.2781 8.45573 12C8.45573 9.72188 10.3197 7.875 12.6189 7.875C14.918 7.875 16.782 9.72188 16.782 12C16.782 14.2781 14.918 16.125 12.6189 16.125Z" fill="#3D89CF"/>
</svg>
