<svg width="25" height="24" viewBox="0 0 25 24" fill="none" xmlns="http://www.w3.org/2000/svg">
<path d="M16.7727 9C17.6087 9 18.2865 8.32843 18.2865 7.5C18.2865 6.67157 17.6087 6 16.7727 6C15.9366 6 15.2588 6.67157 15.2588 7.5C15.2588 8.32843 15.9366 9 16.7727 9Z" fill="#3D89CF"/>
<path d="M16.0157 1.5C14.9519 1.49976 13.9029 1.74642 12.9526 2.22023C12.0024 2.69404 11.1773 3.38181 10.5436 4.22844C9.90992 5.07506 9.48518 6.057 9.30344 7.09555C9.12169 8.13411 9.188 9.20041 9.49704 10.209L1.63403 18V22.5H6.17562L14.0386 14.709C14.9756 14.9908 15.9629 15.0692 16.9333 14.9387C17.9036 14.8083 18.8342 14.4721 19.6615 13.953C20.4888 13.434 21.1935 12.7444 21.7275 11.9311C22.2616 11.1178 22.6123 10.2 22.756 9.24025C22.8996 8.28049 22.8328 7.30132 22.56 6.36948C22.2872 5.43764 21.8148 4.57502 21.1751 3.84042C20.5354 3.10582 19.7434 2.51649 18.8531 2.11261C17.9627 1.70872 16.995 1.49978 16.0157 1.5ZM16.0157 13.5C15.4946 13.4997 14.9763 13.4234 14.4776 13.2735L13.6094 13.0125L12.9683 13.6478L10.5605 16.0335L9.51672 15L8.44642 16.0605L9.49023 17.0947L8.28973 18.2843L7.24592 17.25L6.17562 18.3105L7.21943 19.3447L5.54888 21H3.1479V18.621L10.5673 11.2695L11.2092 10.6342L10.9458 9.774C10.6223 8.71724 10.6433 7.58631 11.0059 6.54207C11.3684 5.49784 12.0541 4.59347 12.9653 3.95762C13.8766 3.32177 14.9669 2.98681 16.0814 3.0004C17.1958 3.01398 18.2775 3.37542 19.1727 4.03329C20.0678 4.69116 20.7308 5.61197 21.0674 6.66473C21.4039 7.71749 21.3968 8.84859 21.0472 9.89714C20.6975 10.9457 20.023 11.8583 19.1197 12.5051C18.2164 13.152 17.1302 13.5001 16.0157 13.5Z" fill="#3D89CF"/>
</svg>
