<svg width="25" height="24" viewBox="0 0 25 24" fill="none" xmlns="http://www.w3.org/2000/svg">
<path d="M20.4271 17.8969C19.9809 16.8496 19.3333 15.8984 18.5205 15.0961C17.7102 14.2915 16.7503 13.65 15.6939 13.207C15.6844 13.2023 15.675 13.2 15.6655 13.1953C17.1391 12.1406 18.0971 10.4227 18.0971 8.48438C18.0971 5.27344 15.4715 2.67188 12.2309 2.67188C8.99031 2.67188 6.3647 5.27344 6.3647 8.48438C6.3647 10.4227 7.32269 12.1406 8.79634 13.1977C8.78688 13.2023 8.77742 13.2047 8.76796 13.2094C7.70825 13.6523 6.75736 14.2875 5.94129 15.0984C5.12927 15.9013 4.48184 16.8524 4.03477 17.8992C3.59557 18.924 3.35869 20.0228 3.33697 21.1359C3.33634 21.161 3.34077 21.1858 3.35 21.2091C3.35922 21.2324 3.37306 21.2537 3.3907 21.2716C3.40833 21.2895 3.42941 21.3037 3.45268 21.3134C3.47595 21.3231 3.50095 21.3281 3.52621 21.3281H4.94545C5.04953 21.3281 5.13232 21.2461 5.13469 21.1453C5.18199 19.3359 5.91527 17.6414 7.21152 16.357C8.5527 15.0281 10.3339 14.2969 12.2309 14.2969C14.128 14.2969 15.9091 15.0281 17.2503 16.357C18.5466 17.6414 19.2798 19.3359 19.3272 21.1453C19.3295 21.2484 19.4123 21.3281 19.5164 21.3281H20.9356C20.9609 21.3281 20.9859 21.3231 21.0092 21.3134C21.0324 21.3037 21.0535 21.2895 21.0711 21.2716C21.0888 21.2537 21.1026 21.2324 21.1118 21.2091C21.1211 21.1858 21.1255 21.161 21.1249 21.1359C21.1012 20.0156 20.867 18.9258 20.4271 17.8969V17.8969ZM12.2309 12.5156C11.1452 12.5156 10.1233 12.0961 9.35458 11.3344C8.58582 10.5727 8.16241 9.56016 8.16241 8.48438C8.16241 7.40859 8.58582 6.39609 9.35458 5.63437C10.1233 4.87266 11.1452 4.45312 12.2309 4.45312C13.3166 4.45312 14.3385 4.87266 15.1073 5.63437C15.876 6.39609 16.2994 7.40859 16.2994 8.48438C16.2994 9.56016 15.876 10.5727 15.1073 11.3344C14.3385 12.0961 13.3166 12.5156 12.2309 12.5156Z" fill="#3D89CF"/>
</svg>
